<?xml version="1.0" encoding="utf-8"?>
<!-- Uploaded to SVGRepo https://www.svgrepo.com -->
<svg version="1.1" id="Layer_1" xmlns="http://www.w3.org/2000/svg" xmlns:xlink="http://www.w3.org/1999/xlink" x="0px" y="0px"
	 width="210px" height="256px" viewBox="0 0 210 256" enable-background="new 0 0 210 256" xml:space="preserve">
<path d="M176.55,144.5L176.55,144.5c-1.4-4-5-6.5-9.2-6.5H161V23c0-11.708-9.292-21-21-21H27C14.57,2,4,12.57,4,25v183
	c0,11.9,10.95,22,22.75,22l114.213,0c1.207,0,2.27,0.984,2.18,2.188c-0.095,1.266-1.153,1.812-2.393,1.812h-45.5L130,254h80
	L176.55,144.5z M84.05,220.2c-3.199,0-5.599-2.399-5.6-5.598c-0.001-3.045,2.557-5.602,5.602-5.602
	c3.199,0.001,5.598,2.401,5.598,5.6C89.55,217.8,87.25,220.2,84.05,220.2z M146,138h-19.65c-5.3,0-9.8,4.7-9.8,10l0,0
	c0,5.3,4.5,10,9.8,10h19.8v42H20V31h126V138z M33,53.097h14.206V127H33V53.097z M52.93,53.097h18.265V127H52.93V53.097z
	 M79.965,53.097h8.117V127h-8.117V53.097z M98.879,53.097h14.206V127H98.879V53.097z M123.883,53.097H132V127h-8.117V53.097z"/>
</svg>
