<?xml version="1.0" encoding="iso-8859-1"?>
<!-- Generator: Adobe Illustrator 16.0.0, SVG Export Plug-In . SVG Version: 6.00 Build 0)  -->
<!DOCTYPE svg PUBLIC "-//W3C//DTD SVG 1.1//EN" "http://www.w3.org/Graphics/SVG/1.1/DTD/svg11.dtd">
<svg version="1.1" id="Capa_1" xmlns="http://www.w3.org/2000/svg" xmlns:xlink="http://www.w3.org/1999/xlink" x="0px" y="0px"
	 width="367.981px" height="367.98px" viewBox="0 0 367.981 367.98" style="enable-background:new 0 0 367.981 367.98;"
	 xml:space="preserve">
<g>
	<g>
		<polygon points="192.598,0.458 93.15,41.636 131.989,134.468 232.217,91.351 		"/>
		<path d="M133.755,252.152c-31.862,0-57.689,25.837-57.689,57.689c0,31.852,25.827,57.682,57.689,57.682
			c31.855,0,57.683-25.83,57.683-57.682C191.438,277.989,165.617,252.152,133.755,252.152z M133.755,337.236
			c-15.129,0-27.386-12.27-27.386-27.395c0-15.119,12.257-27.396,27.386-27.396c15.125,0,27.386,12.276,27.386,27.396
			C161.141,324.967,148.88,337.236,133.755,337.236z"/>
		<path d="M74.182,89.344c0.237,0.049,0.481,0.067,0.712,0.067c1.62,0,3.081-1.136,3.422-2.78l0.6-2.932
			c2.381,2.415,7.748,8.081,9.846,12.16l0.524-0.256c-0.052-0.112-5.182-10.839-11.524-17.598c-2.892-4.25-5.906-7.8-8.686-10.592
			c-1.602,1.428-3.916,2.113-6.098,1.65c-1.814-0.366-3.386-1.432-4.421-3.005c-1.023-1.553-1.379-3.422-0.999-5.255l0.405-1.958
			L29.67,50.939l-10.06-2.606c-3.742-0.959-7.502,1.297-8.403,5.057l-0.512,2.137c-0.904,3.754,1.376,7.639,5.087,8.674
			l56.76,15.856l-1.075,5.164C71.077,87.097,72.294,88.951,74.182,89.344z"/>
		<path d="M71.777,43.396l1.583-7.663c0.387-1.891-0.822-3.742-2.713-4.129c-1.881-0.398-3.742,0.822-4.128,2.719l-0.935,4.533
			l-1.909-0.487c-0.204-0.113-0.359-0.18-0.417-0.21c-1.096-0.518-2.244-0.755-3.385-0.773L9.116,24.248
			c-3.739-0.968-7.505,1.288-8.403,5.048l-0.518,2.141c-0.898,3.754,1.376,7.632,5.105,8.68L60.783,55.61
			c0.375,0.25,0.755,0.499,1.172,0.797l-0.971,4.713c-0.387,1.891,0.822,3.741,2.719,4.128c0.234,0.052,0.472,0.076,0.709,0.076
			c1.629,0,3.069-1.142,3.416-2.789l0.262-1.26c6.859,6.067,15.183,15.683,20.776,29.782c4.165,10.507,16.998,41.507,32.069,77.698
			v80.371c3.586-0.67,7.283-1.035,11.061-1.035c1.766,0,3.516,0.097,5.246,0.243v-40.42c6.159,14.748,12.309,29.489,18.088,43.306
			c9.596,3.526,18.069,9.402,24.75,16.916c-26.278-62.828-67.897-162.544-76.042-183.089C95.314,63.054,80.941,49.941,71.777,43.396
			z"/>
		<path d="M195.968,327.835c3.093,1.206,6.32,1.814,9.554,1.814c3.702,0,7.41-0.798,10.912-2.381l94.899-43.008
			c4.104-1.851,5.925-6.68,4.055-10.796c-1.863-4.098-6.686-5.925-10.79-4.049l-94.893,42.989c-2.503,1.139-5.273,1.218-7.764,0.237
			c-2.503-0.975-4.476-2.917-5.529-5.462c-0.341-0.804-0.688-1.645-1.054-2.515c0.086,1.333,0.141,2.673,0.141,4.024
			c0,6.138-0.92,12.069-2.615,17.671C193.885,326.897,194.903,327.408,195.968,327.835z"/>
		<path d="M134.315,139.132l69.934,165.479l163.731-71.085L298.059,71.542L134.315,139.132z M313.726,149.751l6.924,16.504
			c3.635,8.641-0.451,18.624-9.098,22.266L210.85,230.786c-8.646,3.629-18.639-0.457-22.269-9.109l-6.92-16.508
			c-3.629-8.646,0.447-18.627,9.104-22.256l100.699-42.259C300.111,137.013,310.091,141.096,313.726,149.751z"/>
		<path d="M186.6,203.086l6.933,16.508c2.484,5.919,9.316,8.72,15.229,6.235l100.702-42.259c5.919-2.481,8.708-9.316,6.224-15.238
			l-6.924-16.499c-2.484-5.919-9.316-8.72-15.229-6.223l-100.706,42.247C186.917,190.342,184.125,197.186,186.6,203.086z
			 M242.471,199.488l-0.523-1.279c0.84-0.682,0.572-1.455,0.407-1.826l-1.662-3.965c-0.194-0.493-0.274-0.597-1.212-0.383
			c-0.384,0.078-0.694-0.037-0.846-0.408c-0.263-0.604,0.499-0.944,0.608-0.98l5.279-2.205c0.104-0.048,0.73-0.389,1.041,0.329
			c0.158,0.378,0.024,0.609-0.121,0.828c-0.348,0.487-0.165,0.725-0.11,0.841l1.827,4.354
			C246.198,196.82,244.553,198.574,242.471,199.488z M257.809,192.662l-0.529-1.273c1.687-0.962,2.539-2.752,2.411-4.762
			c0.013-0.396-0.012-0.803,0.378-0.974c0.706-0.299,0.926,0.39,0.956,0.487l1.845,4.396L257.809,192.662z M256.926,186.207
			c-0.56-0.755-1.339-1.431-2.362-1.291l-0.572-1.369c0.822-0.634,0.877-1.669,0.73-2.576c-0.049-0.423-0.061-0.834,0.396-1.023
			c0.683-0.292,0.908,0.542,0.98,0.719l1.991,4.762c0.079,0.171,0.524,0.92-0.164,1.212
			C257.457,186.834,257.176,186.542,256.926,186.207z M268.295,188.271l-2.516,1.047c-0.243,0.11-1.126,0.524-1.412-0.158
			c-0.402-0.938,1.37-0.676,0.572-3.568l-3.715-8.856l0.043-0.024l2.162,1.696l2.788,6.649c1.511,2.605,2.558,1.15,2.947,2.101
			C269.452,187.833,268.539,188.162,268.295,188.271z M305,167.596c0.019-0.393,0-0.798,0.39-0.965
			c0.713-0.296,0.926,0.393,0.962,0.478l1.846,4.409l-5.066,2.128l-0.53-1.279C304.3,171.404,305.153,169.608,305,167.596z
			 M303.247,167.614c-0.463,0.188-0.736-0.106-0.998-0.43c-0.555-0.755-1.34-1.428-2.356-1.291l-0.579-1.367
			c0.828-0.636,0.883-1.663,0.725-2.573c-0.042-0.426-0.061-0.837,0.402-1.035c0.676-0.289,0.907,0.554,0.98,0.728l1.984,4.759
			C303.502,166.579,303.929,167.328,303.247,167.614z M301.134,155.113l1.881,4.469c0.049,0.113,0.195,0.539-0.456,0.813
			c-0.39,0.161-0.579-0.013-0.835-0.302c-1.314-1.54-2.892-2.149-4.956-1.644l-0.542-1.273L301.134,155.113z M289.418,160.033
			l5.827-2.439l6.899,16.474l-5.815,2.439c-0.079,0.037-0.834,0.292-1.096-0.344c-0.135-0.313-0.019-0.594,0.231-0.804
			c0.669-0.557,0.59-0.679,0.249-1.498l-4.835-11.542c-0.347-0.81-0.383-0.953-1.248-0.871c-0.329,0.031-0.608-0.088-0.73-0.387
			C288.621,160.407,289.339,160.063,289.418,160.033z M287.732,160.736l2.155,5.139c0.036,0.08,0.201,0.667-0.457,0.941
			c-0.621,0.25-0.962-0.274-1.235-0.722c-0.683-1.087-1.596-2.414-3.088-2.746l-0.535-1.279L287.732,160.736z M283.567,162.49
			l5.876,13.989c0.347,0.825,0.377,0.962,1.254,0.886c0.323-0.03,0.604,0.083,0.719,0.387c0.274,0.636-0.426,0.987-0.518,1.023
			l-6.235,2.615c-0.079,0.037-0.828,0.299-1.102-0.338c-0.135-0.313-0.013-0.594,0.243-0.801c0.664-0.566,0.585-0.685,0.243-1.507
			l-5.882-13.999L283.567,162.49z M277.191,165.175l0.53,1.267c-0.798,1.303-0.499,2.88-0.207,4.128
			c0.14,0.512,0.268,1.136-0.354,1.392c-0.651,0.273-0.949-0.244-0.992-0.332l-2.144-5.133L277.191,165.175z M268.825,168.674
			l2.996-1.258c0.213-0.088,0.956-0.356,1.205,0.268c0.433,1.017-1.717,0.928-0.396,4.077l2.241,5.343l-0.049,0.024l-2.162-1.702
			l-1.314-3.13c-1.328-3.148-2.771-1.553-3.203-2.561C267.881,169.118,268.593,168.774,268.825,168.674z M258.887,172.839
			l5.669-2.375l11.07,8.455l2.241,5.322l-3.282,1.383l-13.884-10.513c-0.621-0.469-0.87-0.755-1.692-0.685
			c-0.42,0.024-0.755,0.055-0.95-0.433C257.779,173.332,258.443,173.058,258.887,172.839z M255.819,174.136l1.869,4.472
			c0.049,0.113,0.201,0.53-0.463,0.81c-0.359,0.155-0.572-0.019-0.816-0.299c-1.327-1.54-2.904-2.152-4.969-1.646l-0.535-1.279
			L255.819,174.136z M244.103,179.05l5.809-2.439l6.918,16.471l-5.821,2.436c-0.086,0.03-0.841,0.305-1.103-0.329
			c-0.128-0.329-0.019-0.608,0.237-0.804c0.676-0.584,0.585-0.693,0.25-1.51l-4.841-11.545c-0.341-0.81-0.378-0.953-1.248-0.865
			c-0.323,0.024-0.609-0.094-0.725-0.393C243.305,179.442,244.018,179.089,244.103,179.05z M239.377,181.609
			c0.651-0.279,0.25-1.068,0.956-1.363c0.651-0.28,0.871,0.338,0.913,0.444l2.059,4.901c0.049,0.116,0.335,0.798-0.347,1.09
			c-0.579,0.244-0.907-0.104-1.206-0.529c-1.869-2.527-4.104-3.179-5.925-2.515l-0.542-1.272
			C237.679,181.598,239.128,181.707,239.377,181.609z M234.293,182.779l0.529,1.272c-0.749,0.676-0.535,1.65-0.207,2.448
			l4.427,10.546c0.341,0.798,0.896,1.644,1.918,1.583l0.53,1.273c-3.885,1.497-8.397-1.006-10.376-5.712
			C229.124,189.44,230.505,184.472,234.293,182.779z M219.137,189.525c1.425-0.608,2.917-1.272,4.506-1.181
			c1.778,0.109,3.032,0.999,3.764,2.667c1.107,2.509-0.11,4.311-2.138,5.791l0.03,0.042c2.07-0.529,4.184-0.749,5.213,1.571
			l0.815,1.937c0.079,0.194,0.201,0.663,0.481,0.536c0.353-0.141,0.152-0.816,0.676-1.035c0.286-0.116,0.779,0.066,0.913,0.371
			c0.269,0.651-0.115,1.76-0.444,2.338c-0.493,0.932-1.206,1.443-2.155,1.833c-0.95,0.401-1.912,0.523-2.874,0.134
			c-1.108-0.469-1.632-1.4-2.053-2.436l-0.639-1.498c-0.421-1.011-0.963-2.229-2.345-1.814l-0.542-1.303
			c1.145-0.597,0.992-1.395,0.542-2.473l-1.114-2.679c-0.469-1.084-0.932-1.517-2.198-1.449l-0.554-1.298L219.137,189.525z
			 M212.226,192.431l5.815-2.442l5.882,13.993c0.335,0.828,0.371,0.956,1.236,0.883c0.322-0.03,0.603,0.079,0.73,0.384
			c0.274,0.651-0.433,0.986-0.523,1.023l-6.229,2.618c-0.098,0.036-0.834,0.304-1.102-0.335c-0.135-0.311-0.013-0.591,0.237-0.804
			c0.663-0.566,0.591-0.688,0.243-1.505l-4.835-11.532c-0.335-0.815-0.384-0.962-1.248-0.877c-0.322,0.036-0.608-0.085-0.73-0.39
			C211.428,192.814,212.135,192.467,212.226,192.431z M205.96,195.061l2.503-1.053c0.249-0.104,1.126-0.523,1.412,0.158
			c0.396,0.949-1.37,0.67-0.566,3.58l3.483,8.306c1.357,3.696-0.713,6.113-2.144,6.747l-0.548-1.303
			c1.771-1.468,2.082-2.954,1.395-4.969l-3.471-8.245c-1.498-2.606-2.546-1.163-2.947-2.106
			C204.797,195.493,205.71,195.152,205.96,195.061z M195.359,199.512l6.229-2.624c0.098-0.036,0.84-0.298,1.114,0.347
			c0.128,0.311,0.006,0.591-0.243,0.792c-0.664,0.572-0.597,0.694-0.244,1.51l4.434,10.589c0.097,0.22,0.633,2.04,2.472,1.827
			l0.548,1.304c-1.729,0.73-3.081,1.271-4.956,1.077c-2.442-0.28-3.051-0.999-3.514-2.095l-4.378-10.443
			c-0.354-0.815-0.384-0.955-1.248-0.876c-0.329,0.036-0.604-0.079-0.731-0.39C194.574,199.89,195.286,199.536,195.359,199.512z"/>
	</g>
</g>
<g>
</g>
<g>
</g>
<g>
</g>
<g>
</g>
<g>
</g>
<g>
</g>
<g>
</g>
<g>
</g>
<g>
</g>
<g>
</g>
<g>
</g>
<g>
</g>
<g>
</g>
<g>
</g>
<g>
</g>
</svg>
